<svg version="1.1" id="Layer_1" xmlns="http://www.w3.org/2000/svg" xmlns:xlink="http://www.w3.org/1999/xlink" x="0px" y="0px"
	 width="100%" viewBox="0 0 496 496" enable-background="new 0 0 496 496" xml:space="preserve">
<path fill="#000000" opacity="1.000000" stroke="none" 
	d="
M201.213745,288.461548 
	C189.578323,292.920135 178.350159,293.363098 166.765594,288.566467 
	C168.170502,284.266571 169.312439,280.394012 172.451050,276.902740 
	C173.319611,279.078461 173.901596,280.779938 174.663193,282.396790 
	C176.668701,286.654327 180.090256,289.196350 184.735443,289.584412 
	C192.843048,290.261780 200.190826,287.957336 206.763321,283.183441 
	C208.262848,282.094238 209.495453,280.750000 210.352386,279.087799 
	C213.061234,273.833435 211.016647,269.964142 205.124741,270.090302 
	C198.155106,270.239532 191.199921,271.042999 184.237167,271.544617 
	C180.404938,271.820709 176.561722,271.672211 172.830475,270.833069 
	C164.177872,268.887146 158.598007,263.414948 156.974274,254.794937 
	C155.171066,245.222260 160.416016,238.636520 167.714600,233.349731 
	C168.518082,232.767746 169.404800,232.282074 170.303131,231.858124 
	C170.701294,231.670212 171.224609,231.747543 172.077255,231.668808 
	C171.461029,233.981018 169.376953,234.671692 168.250183,236.128876 
	C166.402618,238.518219 164.423813,240.972168 165.918076,244.256958 
	C167.294144,247.281967 170.093765,247.848618 173.051926,247.814163 
	C178.204712,247.754120 183.359314,247.899246 188.495270,247.154312 
	C194.658173,246.260422 200.812714,246.605362 206.795471,248.324432 
	C219.611847,252.007126 224.387894,265.554779 216.784134,276.568817 
	C212.981552,282.076782 207.627701,285.672882 201.213745,288.461548 
z"/>
<path fill="#000000" opacity="1.000000" stroke="none" 
	d="
M345.488007,248.529129 
	C342.617767,241.723114 338.688385,236.400162 331.222443,233.382996 
	C323.937866,251.929779 316.781891,270.149109 309.422852,288.885498 
	C302.722717,287.152802 296.396057,284.017487 289.479187,281.280609 
	C295.817749,267.741089 300.628265,253.980835 306.092926,240.479874 
	C307.529022,236.931778 308.855652,233.337097 310.377045,229.826431 
	C312.002289,226.076080 310.467377,224.613708 306.806244,224.308853 
	C301.021729,223.827179 295.526642,224.690521 290.397156,227.510315 
	C288.959534,228.300613 287.506775,229.063309 284.762604,230.534943 
	C286.363281,225.003479 288.633972,221.107956 290.826996,217.228256 
	C291.813843,215.482452 293.550201,216.436325 294.878601,216.958542 
	C313.151733,224.141678 331.392120,231.408463 349.683899,238.543594 
	C352.230011,239.536743 353.173462,240.941086 352.185120,243.453262 
	C350.774811,247.038025 350.650391,251.147842 348.028748,254.540283 
	C346.221985,252.772202 346.392639,250.625137 345.488007,248.529129 
z"/>
<path fill="#000000" opacity="1.000000" stroke="none" 
	d="
M225.550461,265.314209 
	C218.741470,254.380890 218.152527,242.964951 221.923828,231.433075 
	C224.829361,222.548523 231.798431,217.491592 240.635101,214.962784 
	C241.719269,214.652542 242.906921,214.362381 244.193329,215.627609 
	C240.135559,218.279556 240.149734,222.352737 240.284485,226.588593 
	C240.713074,240.060547 241.014908,253.536606 241.348572,267.011475 
	C241.386047,268.524841 241.464615,269.997650 242.320129,271.327057 
	C243.770554,273.580933 245.621628,275.211060 248.483719,274.553528 
	C251.237885,273.920776 252.011322,271.683838 251.997101,269.189667 
	C251.967667,264.028870 251.805725,258.868927 251.720123,253.708252 
	C251.687485,251.741287 251.714813,249.773315 251.714813,246.397873 
	C257.862183,250.246216 263.783325,250.110992 269.719635,249.919296 
	C271.685059,249.855820 272.214417,251.165573 272.298828,252.855133 
	C272.589355,258.669189 272.895233,264.482574 273.214203,270.295166 
	C273.382507,273.362335 272.097656,274.626038 268.997681,273.891541 
	C264.295624,272.777435 259.642822,273.810486 255.210373,274.999908 
	C243.253479,278.208344 233.614334,274.901123 225.550461,265.314209 
z"/>
<path fill="#000000" opacity="1.000000" stroke="none" 
	d="
M269.688232,221.597687 
	C265.846558,227.759659 262.141815,233.580154 258.437073,239.400650 
	C257.746307,231.029114 264.249695,222.030060 254.239014,215.157883 
	C259.964722,216.304367 266.094757,215.603973 269.688232,221.597687 
z"/>
<path fill="#000000" opacity="1.000000" stroke="none" 
	d="
M188.413910,224.230331 
	C192.516769,221.951843 194.830948,223.030869 196.334671,227.045303 
	C197.474823,230.089188 199.158264,232.929596 200.203766,236.452682 
	C192.980438,232.353104 186.089249,227.779358 177.244751,230.103241 
	C177.162048,229.680954 177.079330,229.258682 176.996628,228.836395 
	C180.683792,227.354965 184.370972,225.873535 188.413910,224.230331 
z"/>
</svg>